<svg width="512" height="512" viewBox="0 0 512 512" fill="none" xmlns="http://www.w3.org/2000/svg">
<g clip-path="url(#clip0_1_45)">
<path d="M505.5 118.527V10.5C505.5 9.70435 505.184 8.94129 504.621 8.37868C504.059 7.81607 503.296 7.5 502.5 7.5H394.473C393.677 7.5 392.914 7.81607 392.352 8.37868C391.789 8.94129 391.473 9.70435 391.473 10.5V23.96L397.68 36.13C397.68 36.9257 397.996 37.6887 398.559 38.2513C399.121 38.8139 399.884 39.13 400.68 39.13L472.685 37.259C473.481 37.259 474.244 37.5751 474.806 38.1377C475.369 38.7003 475.685 39.4633 475.685 40.259L475.214 116.588C475.214 117.384 475.53 118.147 476.093 118.709C476.655 119.272 477.418 119.588 478.214 119.588L489.04 121.526H502.5C504.157 121.527 505.5 120.184 505.5 118.527Z" fill="#A9F7FF"/>
<path d="M391.47 23.96V38.95C391.47 40.6 392.82 41.95 394.47 41.95H468.05C468.846 41.95 469.609 42.2661 470.171 42.8287C470.734 43.3913 471.05 44.1544 471.05 44.95V118.53C471.05 120.18 472.4 121.53 474.05 121.53H489.04V28.96C489.04 27.6339 488.513 26.3621 487.576 25.4245C486.638 24.4868 485.366 23.96 484.04 23.96H391.47Z" fill="#69E7F7"/>
<path d="M7.5 294.473V402.5C7.5 403.296 7.81607 404.059 8.37868 404.621C8.94129 405.184 9.70435 405.5 10.5 405.5H118.527C119.323 405.5 120.086 405.184 120.648 404.621C121.211 404.059 121.527 403.296 121.527 402.5V389.04L115.32 376.87C115.32 376.074 115.004 375.311 114.441 374.749C113.879 374.186 113.116 373.87 112.32 373.87L40.315 375.741C39.5193 375.741 38.7563 375.425 38.1937 374.862C37.6311 374.3 37.315 373.537 37.315 372.741L37.786 296.412C37.786 295.616 37.4699 294.853 36.9073 294.291C36.3447 293.728 35.5816 293.412 34.786 293.412L23.96 291.474H10.5C10.106 291.474 9.7159 291.551 9.35187 291.702C8.98784 291.852 8.65706 292.073 8.37845 292.352C8.09983 292.63 7.87884 292.961 7.72811 293.325C7.57738 293.689 7.49987 294.079 7.5 294.473Z" fill="#A9F7FF"/>
<path d="M121.53 389.04V374.05C121.53 372.4 120.18 371.05 118.53 371.05H44.95C44.1544 371.05 43.3913 370.734 42.8287 370.171C42.2661 369.609 41.95 368.846 41.95 368.05V294.47C41.95 292.82 40.6 291.47 38.95 291.47H23.96V384.04C23.96 385.366 24.4868 386.638 25.4245 387.576C26.3622 388.513 27.6339 389.04 28.96 389.04H121.53Z" fill="#69E7F7"/>
<path d="M505.5 294.473V402.5C505.5 403.296 505.184 404.059 504.621 404.621C504.059 405.184 503.296 405.5 502.5 405.5H394.473C393.677 405.5 392.914 405.184 392.352 404.621C391.789 404.059 391.473 403.296 391.473 402.5V389.04L397.68 376.87C397.68 376.074 397.996 375.311 398.559 374.749C399.121 374.186 399.884 373.87 400.68 373.87L472.685 375.741C473.481 375.741 474.244 375.425 474.806 374.862C475.369 374.3 475.685 373.537 475.685 372.741L475.214 296.412C475.214 295.616 475.53 294.853 476.093 294.291C476.655 293.728 477.418 293.412 478.214 293.412L489.04 291.474H502.5C502.894 291.474 503.284 291.551 503.648 291.702C504.012 291.852 504.343 292.073 504.622 292.352C504.9 292.63 505.121 292.961 505.272 293.325C505.423 293.689 505.5 294.079 505.5 294.473Z" fill="#A9F7FF"/>
<path d="M391.47 389.04V374.05C391.47 372.4 392.82 371.05 394.47 371.05H468.05C468.846 371.05 469.609 370.734 470.171 370.171C470.734 369.609 471.05 368.846 471.05 368.05V294.47C471.05 292.82 472.4 291.47 474.05 291.47H489.04V384.04C489.04 385.366 488.513 386.638 487.576 387.576C486.638 388.513 485.366 389.04 484.04 389.04H391.47Z" fill="#69E7F7"/>
<path d="M348.601 431.186C348.601 431.186 311.763 484.965 245.128 484.965C178.493 484.965 163.391 431.186 163.391 431.186C182.064 426.746 195.863 411.881 199.247 393.58C203.694 391.507 203.096 371.171 203.096 371.036L200.046 335.501H307.387L307.246 384.024C307.246 406.223 324.611 436.823 348.601 431.186Z" fill="#FDD0BF"/>
<path d="M391.748 215.5V135.115C391.748 75.681 349.605 28.401 290.171 28.401L274.818 27.5H219.934C160.5 27.5 112.319 75.681 112.319 135.115V217.5L391.748 215.5Z" fill="#877587"/>
<path d="M269.185 27.5C328.615 27.5 376.795 75.68 376.795 135.11V215.67L400.955 215.5V135.11C400.955 75.68 352.775 27.5 293.335 27.5H269.185Z" fill="#766176"/>
<path d="M359.542 199.376H387.028C400.103 199.376 410.703 209.976 410.703 223.051C410.703 244.665 397.371 264.038 377.183 271.759L353.127 280.964H158.162L135.817 271.759C115.63 264.038 102.297 244.664 102.297 223.051C102.297 209.976 112.897 199.376 125.972 199.376H359.542Z" fill="#FDD0BF"/>
<path d="M200.046 335.5V385.195C211.618 395.271 225.755 401.704 242.446 401.77H269.546C273.331 401.585 275.133 401.692 279.224 400.99C279.909 400.873 280.61 400.9 281.284 401.069C281.957 401.238 282.588 401.546 283.136 401.972C283.684 402.399 284.138 402.935 284.467 403.547C284.796 404.158 284.994 404.832 285.049 405.524C286.915 429.123 306.081 444.929 330.345 451.039C342.345 440.309 348.595 431.189 348.595 431.189C327.145 426.079 312.125 407.209 311.945 385.179V335.5H200.046Z" fill="#FCC1AC"/>
<path d="M311.946 385.18V335.5H200.046V385.195L200.05 385.198C200.027 388.01 199.758 390.815 199.248 393.58C211.581 403.234 226.789 408.486 242.451 408.5H269.551C272.346 408.5 275.13 408.331 277.887 407.998C281.782 407.528 285.459 409.986 286.487 413.771C291.659 432.816 309.031 445.672 330.347 451.04C342.347 440.31 348.597 431.19 348.597 431.19C327.146 426.08 312.126 407.21 311.946 385.18Z" fill="#FCC1AC"/>
<path d="M358.189 317.471L294.936 369.413C287.781 375.289 278.809 378.5 269.551 378.5H242.45C233.192 378.5 224.22 375.288 217.065 369.413L153.812 317.471V157.825C153.812 130.881 181.474 112.801 206.153 123.616L207.907 124.385C223.071 131.03 239.447 134.461 256.002 134.46C272.558 134.46 288.934 131.029 304.097 124.384L305.848 123.617C330.527 112.802 358.189 130.881 358.189 157.826V317.471Z" fill="#FEDECF"/>
<path d="M256.5 151.5C265.889 151.5 273.5 143.889 273.5 134.5C273.5 125.111 265.889 117.5 256.5 117.5C247.111 117.5 239.5 125.111 239.5 134.5C239.5 143.889 247.111 151.5 256.5 151.5Z" fill="#A9F7FF"/>
<path d="M256.5 216.5C265.889 216.5 273.5 208.889 273.5 199.5C273.5 190.111 265.889 182.5 256.5 182.5C247.111 182.5 239.5 190.111 239.5 199.5C239.5 208.889 247.111 216.5 256.5 216.5Z" fill="#A9F7FF"/>
<path d="M205 283.5C214.389 283.5 222 275.889 222 266.5C222 257.111 214.389 249.5 205 249.5C195.611 249.5 188 257.111 188 266.5C188 275.889 195.611 283.5 205 283.5Z" fill="#A9F7FF"/>
<path d="M308 283.5C317.389 283.5 325 275.889 325 266.5C325 257.111 317.389 249.5 308 249.5C298.611 249.5 291 257.111 291 266.5C291 275.889 298.611 283.5 308 283.5Z" fill="#A9F7FF"/>
<path d="M256.5 395.5C265.889 395.5 273.5 387.889 273.5 378.5C273.5 369.111 265.889 361.5 256.5 361.5C247.111 361.5 239.5 369.111 239.5 378.5C239.5 387.889 247.111 395.5 256.5 395.5Z" fill="#A9F7FF"/>
<path d="M153.5 216.5C162.889 216.5 170.5 208.889 170.5 199.5C170.5 190.111 162.889 182.5 153.5 182.5C144.111 182.5 136.5 190.111 136.5 199.5C136.5 208.889 144.111 216.5 153.5 216.5Z" fill="#A9F7FF"/>
<path d="M153.5 334.5C162.889 334.5 170.5 326.889 170.5 317.5C170.5 308.111 162.889 300.5 153.5 300.5C144.111 300.5 136.5 308.111 136.5 317.5C136.5 326.889 144.111 334.5 153.5 334.5Z" fill="#A9F7FF"/>
<path d="M358.5 334.5C367.889 334.5 375.5 326.889 375.5 317.5C375.5 308.111 367.889 300.5 358.5 300.5C349.111 300.5 341.5 308.111 341.5 317.5C341.5 326.889 349.111 334.5 358.5 334.5Z" fill="#A9F7FF"/>
<path d="M359.5 216.5C368.889 216.5 376.5 208.889 376.5 199.5C376.5 190.111 368.889 182.5 359.5 182.5C350.111 182.5 342.5 190.111 342.5 199.5C342.5 208.889 350.111 216.5 359.5 216.5Z" fill="#A9F7FF"/>
<path d="M12.736 504.5C9.81098 504.5 7.46598 501.995 7.75098 499.084C9.98098 476.254 26.652 455.961 49.599 450.176L150.381 423.895C156.447 422.313 162.831 424.687 166.451 429.804C177.557 445.5 206.064 477 255.99 477H256.003C288.365 477 311.729 463.767 327.186 450.18C337.035 446.425 342.327 440.066 346.234 434.544C349.855 429.427 356.239 427.053 362.304 428.635L457.033 451.647C479.514 457.352 496.31 473.707 498.539 496.965C498.818 499.877 496.477 502.381 493.552 502.381L463.025 504.501H12.736V504.5Z" fill="#DBD2FF"/>
<path d="M327.186 450.18L427.486 476.36C442.836 480.26 455.706 490.8 463.026 504.5H499.266C502.186 504.5 504.526 502 504.246 499.08C502.026 475.83 484.876 455.88 462.396 450.18L361.616 423.9C355.546 422.31 349.166 424.69 345.546 429.8C341.636 435.33 335.576 442.81 327.186 450.18Z" fill="#C3B9F9"/>
<path d="M7.5 118.527V10.5C7.5 9.70435 7.81607 8.94129 8.37868 8.37868C8.94129 7.81607 9.70435 7.5 10.5 7.5H118.527C119.323 7.5 120.086 7.81607 120.648 8.37868C121.211 8.94129 121.527 9.70435 121.527 10.5V23.96L115.32 36.13C115.32 36.9257 115.004 37.6887 114.441 38.2513C113.879 38.8139 113.116 39.13 112.32 39.13L40.315 37.259C39.5193 37.259 38.7563 37.5751 38.1937 38.1377C37.6311 38.7003 37.315 39.4633 37.315 40.259L37.786 116.588C37.786 117.384 37.4699 118.147 36.9073 118.709C36.3447 119.272 35.5816 119.588 34.786 119.588L23.96 121.526H10.5C10.106 121.526 9.7159 121.449 9.35187 121.298C8.98784 121.148 8.65706 120.927 8.37845 120.648C8.09983 120.37 7.87884 120.039 7.72811 119.675C7.57738 119.311 7.49987 118.921 7.5 118.527Z" fill="#A9F7FF"/>
<path d="M121.53 23.96V38.95C121.53 40.6 120.18 41.95 118.53 41.95H44.95C44.1544 41.95 43.3913 42.2661 42.8287 42.8287C42.2661 43.3913 41.95 44.1544 41.95 44.95V118.53C41.95 120.18 40.6 121.53 38.95 121.53H23.96V28.96C23.96 27.6339 24.4868 26.3621 25.4245 25.4245C26.3622 24.4868 27.6339 23.96 28.96 23.96H121.53Z" fill="#69E7F7"/>
<path d="M200.05 356.5V384.792C200.05 405.686 186.702 423.8 167.133 430.138M344.473 430.008C325.12 423.556 311.95 405.545 311.95 384.792V356.5" stroke="black" stroke-width="15" stroke-miterlimit="10" stroke-linecap="round" stroke-linejoin="round"/>
<path d="M7.5 504.5C7.5 478.91 24.82 456.56 49.6 450.18L150.38 423.9C156.45 422.31 162.83 424.69 166.45 429.8C177.56 445.5 206.07 477 255.99 477H256.01C305.93 477 334.44 445.5 345.55 429.8C349.17 424.69 355.55 422.31 361.62 423.9L400.95 434.16M435.95 443.28L462.4 450.18C487.18 456.56 504.5 478.91 504.5 504.5M239.508 378.392C231.28 377.785 223.44 374.649 217.064 369.413L167.84 328.991M344.473 328.734L294.936 369.413C288.821 374.434 281.355 377.529 273.481 378.307M358.189 218.132V298.365M274.377 133.043C284.616 131.454 294.606 128.544 304.096 124.384L305.847 123.617C330.526 112.802 358.188 130.881 358.188 157.826V180.308M153.811 182.5V157.825C153.811 130.881 181.473 112.801 206.152 123.616L207.906 124.385C217.71 128.682 228.045 131.645 238.636 133.196M153.811 300.5V218.082M153.766 278.624L135.817 271.759C115.63 264.038 102.297 244.664 102.297 223.051C102.297 209.976 112.897 199.376 125.972 199.376H135.458M359.234 278.624L377.183 271.759C397.37 264.038 410.703 244.664 410.703 223.051C410.703 209.976 400.103 199.376 387.028 199.376H377.542" stroke="black" stroke-width="15" stroke-miterlimit="10" stroke-linecap="round" stroke-linejoin="round"/>
<path d="M154.684 49.534C172.785 35.711 195.402 27.5 219.937 27.5H293.34C352.774 27.5 400.955 75.681 400.955 135.115V204.12M112.323 202.119V135.114C112.323 113.358 118.779 93.111 129.879 76.182M256.5 360.5V303.39M256.5 264.12V218.13M256.5 153.359V180.308M170.5 188.772L241.575 142.919M271.616 143.031L342.5 188.577M212.414 283.5L248.725 361.5M246.384 214.17L216.289 251.351M297.088 251.757L266.682 213.979M264.51 361.5L300.628 283.5M163.51 213.686L194.058 251.757M165.521 305.479L192.376 278.624M319.722 251.757L346.56 216.5M344.732 303.457L320.387 278.624" stroke="black" stroke-width="15" stroke-miterlimit="10" stroke-linecap="round" stroke-linejoin="round"/>
<path d="M256.5 151.5C265.889 151.5 273.5 143.889 273.5 134.5C273.5 125.111 265.889 117.5 256.5 117.5C247.111 117.5 239.5 125.111 239.5 134.5C239.5 143.889 247.111 151.5 256.5 151.5Z" stroke="black" stroke-width="15" stroke-miterlimit="10" stroke-linecap="round" stroke-linejoin="round"/>
<path d="M256.5 216.5C265.889 216.5 273.5 208.889 273.5 199.5C273.5 190.111 265.889 182.5 256.5 182.5C247.111 182.5 239.5 190.111 239.5 199.5C239.5 208.889 247.111 216.5 256.5 216.5Z" stroke="black" stroke-width="15" stroke-miterlimit="10" stroke-linecap="round" stroke-linejoin="round"/>
<path d="M205 283.5C214.389 283.5 222 275.889 222 266.5C222 257.111 214.389 249.5 205 249.5C195.611 249.5 188 257.111 188 266.5C188 275.889 195.611 283.5 205 283.5Z" stroke="black" stroke-width="15" stroke-miterlimit="10" stroke-linecap="round" stroke-linejoin="round"/>
<path d="M308 283.5C317.389 283.5 325 275.889 325 266.5C325 257.111 317.389 249.5 308 249.5C298.611 249.5 291 257.111 291 266.5C291 275.889 298.611 283.5 308 283.5Z" stroke="black" stroke-width="15" stroke-miterlimit="10" stroke-linecap="round" stroke-linejoin="round"/>
<path d="M256.5 395.5C265.889 395.5 273.5 387.889 273.5 378.5C273.5 369.111 265.889 361.5 256.5 361.5C247.111 361.5 239.5 369.111 239.5 378.5C239.5 387.889 247.111 395.5 256.5 395.5Z" stroke="black" stroke-width="15" stroke-miterlimit="10" stroke-linecap="round" stroke-linejoin="round"/>
<path d="M153.5 216.5C162.889 216.5 170.5 208.889 170.5 199.5C170.5 190.111 162.889 182.5 153.5 182.5C144.111 182.5 136.5 190.111 136.5 199.5C136.5 208.889 144.111 216.5 153.5 216.5Z" stroke="black" stroke-width="15" stroke-miterlimit="10" stroke-linecap="round" stroke-linejoin="round"/>
<path d="M153.5 334.5C162.889 334.5 170.5 326.889 170.5 317.5C170.5 308.111 162.889 300.5 153.5 300.5C144.111 300.5 136.5 308.111 136.5 317.5C136.5 326.889 144.111 334.5 153.5 334.5Z" stroke="black" stroke-width="15" stroke-miterlimit="10" stroke-linecap="round" stroke-linejoin="round"/>
<path d="M358.5 334.5C367.889 334.5 375.5 326.889 375.5 317.5C375.5 308.111 367.889 300.5 358.5 300.5C349.111 300.5 341.5 308.111 341.5 317.5C341.5 326.889 349.111 334.5 358.5 334.5Z" stroke="black" stroke-width="15" stroke-miterlimit="10" stroke-linecap="round" stroke-linejoin="round"/>
<path d="M359.5 216.5C368.889 216.5 376.5 208.889 376.5 199.5C376.5 190.111 368.889 182.5 359.5 182.5C350.111 182.5 342.5 190.111 342.5 199.5C342.5 208.889 350.111 216.5 359.5 216.5Z" stroke="black" stroke-width="15" stroke-miterlimit="10" stroke-linecap="round" stroke-linejoin="round"/>
<path d="M99.513 370.054H121.527V404.5H7.5V290.473H41.946V370.054H64.513M7.5 121.527V7.5H121.527V41.946H41.946V121.527H7.5ZM504.5 121.527H470.054V41.946H390.473V7.5H504.5V121.527ZM504.5 404.5H390.446V370.452L470.054 370.054V290.473H504.5V404.5Z" stroke="black" stroke-width="15" stroke-miterlimit="10" stroke-linecap="round" stroke-linejoin="round"/>
</g>
<defs>
<clipPath id="clip0_1_45">
<rect width="512" height="512" fill="white"/>
</clipPath>
</defs>
</svg>
